<svg fill="none" height="24" viewBox="0 0 24 24" width="24" xmlns="http://www.w3.org/2000/svg"><path d="m13.83 19c-.1494.0005-.297-.0324-.432-.0965-.135-.064-.2539-.1574-.348-.2735l-4.83002-6c-.14708-.1789-.22749-.4033-.22749-.635 0-.2316.08041-.456.22749-.635l5.00002-5.99997c.1697-.20422.4136-.33264.6781-.35702.2644-.02438.5277.05728.7319.22702s.3326.41365.357.67808c.0244.26442-.0573.5277-.227.73192l-4.47 5.35997 4.32 5.36c.1223.1468.1999.3256.2238.5151.0239.1896-.007.382-.0891.5545-.082.1725-.2118.3179-.3739.419s-.3498.1537-.5408.1514z" fill="#5a5a5a"/></svg>